<?xml version="1.0" encoding="utf-8"?>
<!-- Generator: Adobe Illustrator 23.1.1, SVG Export Plug-In . SVG Version: 6.00 Build 0)  -->
<svg version="1.1" id="Layer_1" xmlns="http://www.w3.org/2000/svg" xmlns:xlink="http://www.w3.org/1999/xlink" x="0px" y="0px"
	 viewBox="0 0 2880 1800" style="enable-background:new 0 0 2880 1800;" xml:space="preserve">
<style type="text/css">
	.st0{fill:#101B2D;}
	.st1{fill:#07706C;}
	.st2{fill:#162235;}
	.st3{fill:#192437;}
	.st4{fill:#182336;}
	.st5{clip-path:url(#SVGID_2_);}
	.st6{fill:#07706D;}
	.st7{fill:none;}
</style>
<path class="st0" d="M1470,1800c-205.3,0-410.7,0-616,0c-7.9-17.3-15.7-34.6-23.8-51.7c-20.1-42.5-40.4-84.8-60.7-127.2
	c-15.9-33.4-32-66.7-47.8-100.1c-22.2-46.7-44.1-93.4-66.3-140c-27.2-57.2-54.6-114.2-81.9-171.4c-28.1-58.9-56.1-117.9-84.4-176.8
	c-2-4.1-5.3-7.5-8-11.3c5.2-3,10.2-6.3,15.6-8.9c26.4-12.7,53-25.2,79.4-37.8c73.3-35,146.7-70.1,220-105.1
	c45.4-21.7,90.8-43.3,136.2-65c64-30.6,128-61.2,192-91.9c4.2-2,8.1-4.5,12.2-6.8c3.5-1.2,7-2.2,10.3-3.7
	c25.3-11.9,50.5-23.9,75.8-36c21.3-10.2,42.5-20.7,63.8-30.8c26.4-12.6,53-24.9,79.5-37.5c28.2-13.5,56.3-27.4,84.5-40.8
	c29.7-14.2,59.7-28,89.4-42.2c49.3-23.5,98.5-47.2,147.8-70.6c3.9-1.8,8.1-2.8,12.2-4.2c4.1,8.7,8.3,17.4,12.4,26.2
	c21.1,44.2,42.2,88.3,63.3,132.5c30.6,64,61.2,128,91.8,192c15.2,31.8,30.4,63.7,45.6,95.5c29.3,61.3,58.7,122.6,88,183.8
	c7.2,15,14.2,30.1,21.3,45.2c15.9,33.4,31.8,66.8,47.7,100.1c12.8,26.7,25.6,53.5,38.3,80.2c16.4,34.3,32.7,68.5,49,102.8
	c8.4,17.7,16.7,35.6,25,53.3c-3.6,2.3-7,5.1-10.9,7c-30.9,14.9-61.9,29.5-92.9,44.3c-46,21.9-92,43.8-137.9,65.8
	c-37.8,18.1-75.6,36.3-113.5,54.5c-39.9,19.1-80,38-119.9,57.3c-43.5,21-86.8,42.3-130.2,63.4c-26.3,12.8-52.9,25.2-79.2,37.9
	c-7.2,3.5-14.2,7.2-21,11.4C1474.1,1794.6,1472.2,1797.6,1470,1800z"/>
<path class="st1" d="M2182.3,1451.7c-8.3-17.8-16.6-35.6-25-53.3c-16.3-34.3-32.7-68.5-49-102.8c-12.8-26.7-25.6-53.5-38.3-80.2
	c-15.9-33.4-31.8-66.7-47.7-100.1c-7.1-15-14.1-30.2-21.3-45.2c-29.3-61.3-58.7-122.6-88-183.8c-15.2-31.8-30.4-63.7-45.6-95.5
	c-30.6-64-61.2-128-91.8-192c-21.1-44.2-42.2-88.3-63.3-132.5c-4.2-8.7-8.3-17.4-12.4-26.2c3.3-2.1,6.5-4.6,10.1-6.3
	c15.9-7.7,31.9-15.2,47.8-22.8c52-24.8,103.9-49.7,155.9-74.5c83.5-39.9,167.1-79.7,250.6-119.5c55.6-26.5,111.2-53,166.8-79.6
	c7.2-3.4,14.2-7.4,21.2-11.1c3.1-1.2,6.3-2.3,9.2-3.7c29.8-14.1,59.5-28.3,89.3-42.5c52.3-24.9,104.6-49.9,156.9-74.8
	c3-1.4,5.7-3.4,8.5-5.1c87.9,0,175.9,0,264,0c0,374,0,748,0,1122c-3.8,1.2-7.7,2-11.3,3.7c-57.7,27.4-115.4,55-173.1,82.5
	c-40.9,19.5-81.8,38.9-122.6,58.5c-27.9,13.4-55.6,27.2-83.5,40.8c-3.1,1.2-6.3,2.1-9.3,3.5c-40.3,19.1-80.6,38.2-120.9,57.5
	c-53.5,25.5-106.9,51.2-160.4,76.7C2193.6,1447.8,2187.9,1449.5,2182.3,1451.7z"/>
<path class="st1" d="M1136.5,706c-4.1,2.3-8,4.8-12.2,6.8c-64,30.7-128,61.3-192,91.9c-45.4,21.7-90.8,43.3-136.2,65
	c-73.3,35-146.7,70.1-220,105.1c-26.5,12.6-53,25.1-79.4,37.8c-5.4,2.6-10.4,5.9-15.6,8.9c-4.1,1.4-8.3,2.5-12.2,4.3
	c-75.8,36.1-151.6,72.4-227.3,108.5c-39.1,18.7-78.3,37.2-117.3,55.9C82.8,1210,41.4,1230,0,1250C0,833.3,0,416.7,0,0
	c267.3,0,534.7,0,802,0c2,5.9,3.4,12.2,6.1,17.8c22.4,46.9,45.1,93.6,67.5,140.5c29.4,61.6,58.6,123.4,88,185
	c12.6,26.5,25.5,52.8,38.1,79.3c21.5,45.1,42.8,90.3,64.3,135.4C1089.5,607.4,1113,656.7,1136.5,706z"/>
<path class="st2" d="M1136.5,706c-23.5-49.3-47-98.6-70.5-148c-21.5-45.1-42.8-90.3-64.3-135.4c-12.6-26.5-25.5-52.8-38.1-79.3
	c-29.4-61.7-58.6-123.4-88-185c-22.4-46.9-45.1-93.6-67.5-140.5C805.4,12.2,804,5.9,802,0c497.3,0,994.7,0,1492,0
	c11.9,25.5,23.8,51,35.6,76.5c7.6,16.5,15,33.1,22.5,49.7c-7.1,3.7-14,7.6-21.2,11.1c-55.6,26.6-111.2,53.1-166.8,79.6
	c-83.5,39.8-167.1,79.7-250.6,119.5c-52,24.8-103.9,49.7-155.9,74.5c-15.9,7.6-31.9,15.1-47.8,22.8c-3.5,1.7-6.7,4.2-10.1,6.3
	c-4.1,1.4-8.4,2.4-12.2,4.2c-49.3,23.5-98.5,47.2-147.8,70.6c-29.8,14.2-59.7,28-89.4,42.2c-28.2,13.5-56.3,27.3-84.5,40.8
	c-26.4,12.6-53,24.9-79.5,37.5c-21.3,10.2-42.5,20.6-63.8,30.8c-25.2,12.1-50.5,24.1-75.8,36C1143.6,703.8,1140,704.8,1136.5,706z"
	/>
<path class="st3" d="M0,1250c41.4-20,82.8-40,124.3-59.9c39.1-18.7,78.2-37.2,117.3-55.9c75.8-36.2,151.5-72.4,227.3-108.5
	c3.9-1.8,8.1-2.9,12.2-4.3c2.7,3.7,6.1,7.2,8,11.3c28.2,58.9,56.2,117.9,84.4,176.8c27.3,57.1,54.7,114.2,81.9,171.4
	c22.2,46.6,44.1,93.4,66.3,140c15.9,33.4,31.9,66.7,47.8,100.1c20.2,42.4,40.6,84.8,60.7,127.2c8.1,17.1,15.9,34.5,23.8,51.7
	c-284.7,0-569.3,0-854,0C0,1616.7,0,1433.3,0,1250z"/>
<path class="st4" d="M2182.3,1451.7c5.6-2.1,11.3-3.9,16.7-6.5c53.5-25.5,106.9-51.2,160.4-76.7c40.3-19.2,80.6-38.4,120.9-57.5
	c3-1.4,6.2-2.3,9.3-3.5c27.3,57.8,54.5,115.7,82,173.5c21.6,45.4,43.6,90.7,65.4,136.1c26.2,54.7,52.5,109.4,78.5,164.1
	c2.8,6,4.4,12.5,6.5,18.8c-417.3,0-834.7,0-1252,0c2.2-2.4,4.1-5.4,6.8-7c6.8-4.1,13.9-7.9,21-11.4c26.4-12.7,52.9-25.1,79.2-37.9
	c43.4-21,86.7-42.4,130.2-63.4c39.9-19.2,79.9-38.1,119.9-57.3c37.8-18.1,75.6-36.4,113.5-54.5c46-22,92-43.9,137.9-65.8
	c31-14.8,62-29.4,92.9-44.3C2175.3,1456.8,2178.7,1454,2182.3,1451.7z"/>
<path class="st0" d="M2722,1800c-2.1-6.3-3.7-12.8-6.5-18.8c-26-54.8-52.3-109.5-78.5-164.1c-21.8-45.4-43.8-90.6-65.4-136.1
	c-27.5-57.8-54.7-115.7-82-173.5c27.8-13.6,55.6-27.4,83.5-40.8c40.8-19.6,81.7-39,122.6-58.5c57.7-27.5,115.4-55.1,173.1-82.5
	c3.6-1.7,7.5-2.5,11.3-3.7c0,226,0,452,0,678C2827.2,1800,2774.6,1800,2722,1800z"/>
<path class="st0" d="M2341.2,131.2c-7.8-17.3-15.5-34.6-23.4-51.8c-12.3-26.6-24.7-53.1-37.1-79.7c111.8,0,223.6,0,335.3,0
	c-3,1.8-5.8,3.9-8.9,5.3c-54.4,26-108.9,52-163.3,77.9c-31,14.8-62,29.6-93,44.3C2347.7,128.8,2344.4,130,2341.2,131.2z"/>
<g>
	<g>
		<defs>
			<rect id="SVGID_1_" width="2880" height="1800"/>
		</defs>
		<clipPath id="SVGID_2_">
			<use xlink:href="#SVGID_1_"  style="overflow:visible;"/>
		</clipPath>
		<g class="st5">
			
				<rect x="308.3" y="-682.8" transform="matrix(0.7071 0.7071 -0.7071 0.7071 51.1681 -539.3448)" class="st6" width="736.8" height="949.8"/>
			
				<rect x="-338.7" y="-35.8" transform="matrix(0.7071 0.7071 -0.7071 0.7071 319.1528 107.6275)" class="st0" width="736.8" height="949.8"/>
			<g>
				
					<rect x="502.6" y="163.9" transform="matrix(0.7071 0.7071 -0.7071 0.7071 706.8434 -428.7857)" class="st6" width="736.8" height="949.8"/>
				
					<rect x="-144.3" y="810.9" transform="matrix(0.7071 0.7071 -0.7071 0.7071 974.8281 218.1866)" class="st3" width="736.8" height="949.8"/>
			</g>
			
				<rect x="1142.9" y="-476.3" transform="matrix(0.7071 0.7071 -0.7071 0.7071 441.6249 -1069.0797)" class="st0" width="736.8" height="949.8"/>
			<g>
				
					<rect x="2114.2" y="-405.7" transform="matrix(0.7071 0.7071 -0.7071 0.7071 776.0894 -1735.1942)" class="st6" width="736.8" height="949.8"/>
				
					<rect x="1467.3" y="241.3" transform="matrix(0.7071 0.7071 -0.7071 0.7071 1044.0741 -1088.2219)" class="st3" width="736.8" height="949.8"/>
			</g>
			<g>
				
					<rect x="822.5" y="886" transform="matrix(0.7071 0.7071 -0.7071 0.7071 1311.1328 -443.4852)" class="st6" width="736.8" height="949.8"/>
				
					<rect x="175.5" y="1533" transform="matrix(0.7071 0.7071 -0.7071 0.7071 1579.1176 203.4871)" class="st3" width="736.8" height="949.8"/>
			</g>
			<line class="st7" x1="2217.6" y1="360.8" x2="2330.1" y2="1232.8"/>
		</g>
		<g class="st5">
			
				<rect x="2924.2" y="-181.6" transform="matrix(0.7071 0.7071 -0.7071 0.7071 1171.8002 -2242.3267)" class="st6" width="736.8" height="949.8"/>
			
				<rect x="2277.3" y="465.4" transform="matrix(0.7071 0.7071 -0.7071 0.7071 1439.7848 -1595.3544)" class="st0" width="736.8" height="949.8"/>
			<g>
				
					<rect x="3118.6" y="665.2" transform="matrix(0.7071 0.7071 -0.7071 0.7071 1827.4753 -2131.7676)" class="st6" width="736.8" height="949.8"/>
				
					<rect x="2471.7" y="1312.1" transform="matrix(0.7071 0.7071 -0.7071 0.7071 2095.46 -1484.7952)" class="st3" width="736.8" height="949.8"/>
			</g>
			
				<rect x="3758.9" y="24.9" transform="matrix(0.7071 0.7071 -0.7071 0.7071 1562.257 -2772.0615)" class="st0" width="736.8" height="949.8"/>
			<g>
				
					<rect x="4730.2" y="95.6" transform="matrix(0.7071 0.7071 -0.7071 0.7071 1896.7214 -3438.176)" class="st6" width="736.8" height="949.8"/>
				
					<rect x="4083.3" y="742.5" transform="matrix(0.7071 0.7071 -0.7071 0.7071 2164.7061 -2791.2039)" class="st3" width="736.8" height="949.8"/>
			</g>
			<g>
				
					<rect x="3438.5" y="1387.3" transform="matrix(0.7071 0.7071 -0.7071 0.7071 2431.7649 -2146.467)" class="st6" width="736.8" height="949.8"/>
				
					<rect x="2791.5" y="2034.2" transform="matrix(0.7071 0.7071 -0.7071 0.7071 2699.7495 -1499.4948)" class="st3" width="736.8" height="949.8"/>
			</g>
			<line class="st7" x1="4833.6" y1="862" x2="4946.1" y2="1734"/>
		</g>
		<g class="st5">
			
				<rect x="1686.2" y="1061.7" transform="matrix(0.7071 0.7071 -0.7071 0.7071 1688.3024 -1002.7576)" class="st6" width="736.8" height="949.8"/>
			
				<rect x="1039.2" y="1708.7" transform="matrix(0.7071 0.7071 -0.7071 0.7071 1956.2871 -355.7853)" class="st0" width="736.8" height="949.8"/>
			<g>
				
					<rect x="1880.6" y="1908.4" transform="matrix(0.7071 0.7071 -0.7071 0.7071 2343.9778 -892.1985)" class="st6" width="736.8" height="949.8"/>
				
					<rect x="1233.6" y="2555.4" transform="matrix(0.7071 0.7071 -0.7071 0.7071 2611.9624 -245.2262)" class="st3" width="736.8" height="949.8"/>
			</g>
			
				<rect x="2510.9" y="1268.1" transform="matrix(0.7071 0.7071 -0.7071 0.7071 2075.8303 -1525.4215)" class="st0" width="736.8" height="949.8"/>
			<g>
				
					<rect x="3492.2" y="1338.8" transform="matrix(0.7071 0.7071 -0.7071 0.7071 2413.2236 -2198.6069)" class="st6" width="736.8" height="949.8"/>
				
					<rect x="2845.2" y="1985.8" transform="matrix(0.7071 0.7071 -0.7071 0.7071 2681.2085 -1551.6348)" class="st3" width="736.8" height="949.8"/>
			</g>
			<g>
				
					<rect x="2200.5" y="2630.5" transform="matrix(0.7071 0.7071 -0.7071 0.7071 2948.2671 -906.898)" class="st6" width="736.8" height="949.8"/>
				
					<rect x="1553.5" y="3277.5" transform="matrix(0.7071 0.7071 -0.7071 0.7071 3216.2517 -259.9257)" class="st3" width="736.8" height="949.8"/>
			</g>
			<line class="st7" x1="3595.5" y1="2105.2" x2="3708.1" y2="2977.2"/>
		</g>
	</g>
</g>
</svg>
